<?xml version="1.0" encoding="UTF-8" standalone="no"?>
<svg width="52px" height="52px" viewBox="0 0 52 52" version="1.1" xmlns="http://www.w3.org/2000/svg" xmlns:xlink="http://www.w3.org/1999/xlink" xmlns:sketch="http://www.bohemiancoding.com/sketch/ns">
    <!-- Generator: Sketch 3.3 (11970) - http://www.bohemiancoding.com/sketch -->
    <title>58 - Settings</title>
    <desc>Created with Sketch.</desc>
    <defs></defs>
    <g id="Page-1" stroke="none" stroke-width="1" fill="none" fill-rule="evenodd" sketch:type="MSPage">
        <g id="58---Settings" sketch:type="MSArtboardGroup">
            <g id="Group" sketch:type="MSLayerGroup" transform="translate(6.000000, 0.000000)">
                <path d="M3.66553425,35.5054905 C2.70334247,35.5047242 1.81216438,35.2666189 1.11419178,34.7106021 C0.411835616,34.1626863 0.00197260274,33.2699284 0.0149041096,32.3860379 C0.0162191781,31.6614316 0.245479452,30.94832 0.639561644,30.2665179 L16.9466301,2.09018105 C17.2877808,1.50186947 17.7089315,1.01055158 18.2219178,0.651587368 C18.7316164,0.29328 19.3467397,0.0776168421 19.9764384,0.0794778947 C20.6060274,0.0776168421 21.2211507,0.29328 21.7306301,0.651587368 C22.243726,1.01055158 22.6648767,1.50186947 23.006137,2.08996211 L39.3132055,30.2665179 L39.3133151,30.2665179 C39.7070685,30.9485389 39.9362192,31.6614316 39.937863,32.3858189 C39.9507945,33.2697095 39.5410411,34.1624674 38.8385753,34.7103832 C38.1406027,35.2664 37.2493151,35.5047242 36.2874521,35.5054905 L3.66553425,35.5054905" id="Fill-1" fill="#1A1918" sketch:type="MSShapeGroup"></path>
                <path d="M19.6650959,2.71615158 C19.5176986,2.81785263 19.3212055,3.01731368 19.1287671,3.35033263 L2.82158904,31.5269979 C2.59736986,31.9130021 2.5340274,32.2120842 2.53545205,32.3860379 C2.54860274,32.6025768 2.57764384,32.6399074 2.69205479,32.7471916 C2.81117808,32.8465937 3.1149589,32.9882526 3.66553425,32.9875958 L36.2874521,32.9873768 C36.837589,32.9880337 37.1413699,32.8462653 37.2604932,32.7469726 C37.3749041,32.6395789 37.404274,32.6022484 37.4170959,32.3858189 C37.4186301,32.2118653 37.3553973,31.9130021 37.1309589,31.52656 L37.1310685,31.52656 L20.824,3.35055158 C20.6318904,3.01731368 20.4349589,2.81785263 20.2876712,2.71615158 C20.1369863,2.61368421 20.0492055,2.59923368 19.9764384,2.59737263 C19.9034521,2.59923368 19.8156712,2.61368421 19.6650959,2.71615158" id="Fill-2" fill="#FFFFFF" sketch:type="MSShapeGroup"></path>
                <path d="M20.2962192,24.8179032 L19.6847123,24.8179032 C19.6198356,23.7629053 19.4067945,22.4857853 19.0454795,20.9865432 L18.3228493,17.9603621 C17.8873425,16.1466021 17.6698082,14.8462737 17.6698082,14.0595958 C17.6698082,13.3471411 17.8827397,12.7733895 18.3090411,12.3382316 C18.7350137,11.9032926 19.2908493,11.6857684 19.9765479,11.6857684 C20.6436164,11.6857684 21.1971507,11.9058105 21.6371507,12.3452379 C22.0770411,12.7848842 22.2973151,13.3425432 22.2973151,14.0179958 C22.2973151,14.7213642 22.0655342,16.0354863 21.602411,17.9603621 L20.865863,20.9865432 C20.6064658,22.0602611 20.4165479,23.3373811 20.2962192,24.8179032 L20.2962192,24.8179032 Z M20.004274,26.8029895 C20.6248767,26.8029895 21.1553973,27.0230316 21.5955068,27.4623495 C22.0352877,27.9021053 22.2555616,28.4365558 22.2555616,29.0658105 C22.2555616,29.6858695 22.0352877,30.2158316 21.5955068,30.6551495 C21.1553973,31.0946863 20.6248767,31.3146189 20.004274,31.3146189 C19.3835616,31.3146189 18.8531507,31.0946863 18.4132603,30.6551495 C17.9730411,30.2158316 17.7532055,29.6858695 17.7532055,29.0658105 C17.7532055,28.4458611 17.9707397,27.9134905 18.4062466,27.4693558 C18.8416438,27.0251116 19.3742466,26.8029895 20.004274,26.8029895 L20.004274,26.8029895 Z" id="Fill-3" fill="#1A1918" sketch:type="MSShapeGroup"></path>
                <path d="M2.312,40.7428211 C2.312,40.3053642 2.37139726,39.9070989 2.49041096,39.5478063 C2.60920548,39.1888421 2.77687671,38.8823158 2.99320548,38.6283368 C3.20931507,38.3745768 3.46882192,38.1774147 3.77161644,38.03696 C4.07441096,37.8967242 4.40953425,37.8263326 4.77731507,37.8263326 C5.03671233,37.8263326 5.29073973,37.8657432 5.53950685,37.9437979 C5.78805479,38.0221811 6.01391781,38.1436968 6.21676712,38.3084547 C6.41939726,38.4731032 6.59232877,38.6825263 6.73567123,38.9362863 C6.87890411,39.1900463 6.9750137,39.4926316 7.02356164,39.8434947 L5.9369863,39.8434947 C5.8610411,39.5195621 5.7260274,39.2846316 5.53150685,39.1388126 C5.33676712,38.9928842 5.08536986,38.9199747 4.77731507,38.9199747 C4.58257534,38.9199747 4.40427397,38.9633263 4.2419726,39.0495916 C4.07989041,39.1360758 3.94060274,39.2590147 3.82443836,39.4181895 C3.70805479,39.5775832 3.61884932,39.7692716 3.55671233,39.9933642 C3.49457534,40.2176758 3.46356164,40.4673853 3.46356164,40.7428211 C3.46356164,41.0128926 3.49457534,41.2585516 3.55671233,41.4800168 C3.61884932,41.7015916 3.70805479,41.8904337 3.82443836,42.0470905 C3.94060274,42.2038568 4.07989041,42.3252632 4.2419726,42.4116379 C4.40427397,42.4980126 4.58257534,42.5412547 4.77731507,42.5412547 C5.05830137,42.5412547 5.3030137,42.4576168 5.51112329,42.2901221 C5.71923288,42.1227368 5.8610411,41.86624 5.9369863,41.5204126 L7.03978082,41.5204126 C6.99112329,41.9040084 6.89380822,42.2307874 6.74783562,42.50064 C6.60186301,42.7708211 6.42476712,42.9908632 6.21676712,43.1609853 C6.00843836,43.3309979 5.78005479,43.4539368 5.53150685,43.5294737 C5.28273973,43.60512 5.03123288,43.6429979 4.77731507,43.6429979 C4.40953425,43.6429979 4.07441096,43.5741389 3.77161644,43.4363116 C3.46882192,43.2987032 3.20931507,43.1028547 2.99320548,42.8490947 C2.77687671,42.5953347 2.60920548,42.2901221 2.49041096,41.9335663 C2.37139726,41.57712 2.312,41.1802779 2.312,40.7428211 L2.312,40.7428211 Z M12.5574795,40.73472 C12.5574795,41.1721768 12.4979726,41.5704421 12.3790685,41.9296253 C12.2600548,42.2888084 12.0924932,42.5953347 11.876274,42.8490947 C11.6599452,43.1028547 11.4004384,43.3000168 11.0977534,43.4403621 C10.7949589,43.5808168 10.459726,43.6510989 10.0921644,43.6510989 C9.71364384,43.6510989 9.3730411,43.5808168 9.07035616,43.4403621 C8.76756164,43.3000168 8.50805479,43.1028547 8.29183562,42.8490947 C8.07550685,42.5953347 7.90783562,42.2888084 7.7890411,41.9296253 C7.6700274,41.5704421 7.61063014,41.1721768 7.61063014,40.73472 C7.61063014,40.2972632 7.6700274,39.8989979 7.7890411,39.5398147 C7.90783562,39.1806316 8.07550685,38.8743242 8.29183562,38.6202358 C8.50805479,38.3664758 8.76756164,38.1694232 9.07035616,38.0288589 C9.3730411,37.8886232 9.71364384,37.8182316 10.0921644,37.8182316 C10.459726,37.8182316 10.7949589,37.8886232 11.0977534,38.0288589 C11.4004384,38.1694232 11.6599452,38.3664758 11.876274,38.6202358 C12.0924932,38.8743242 12.2600548,39.1806316 12.3790685,39.5398147 C12.4979726,39.8989979 12.5574795,40.2972632 12.5574795,40.73472 L12.5574795,40.73472 Z M8.76219178,40.73472 C8.76219178,41.0100463 8.79320548,41.2599747 8.85545205,41.4839579 C8.91747945,41.70816 9.00679452,41.8999579 9.12306849,42.0592421 C9.23934247,42.2185263 9.37852055,42.3414653 9.54071233,42.4277305 C9.70290411,42.5143242 9.88394521,42.5574568 10.0840548,42.5574568 C10.2840548,42.5574568 10.4652055,42.5143242 10.6273973,42.4277305 C10.789589,42.3414653 10.9287671,42.2185263 11.0450411,42.0592421 C11.1612055,41.8999579 11.250411,41.70816 11.3126575,41.4839579 C11.3747945,41.2599747 11.4059178,41.0100463 11.4059178,40.73472 C11.4059178,40.4646484 11.3747945,40.2176758 11.3126575,39.9933642 C11.250411,39.7692716 11.1612055,39.5775832 11.0450411,39.4181895 C10.9287671,39.2590147 10.789589,39.1360758 10.6273973,39.0495916 C10.4652055,38.9633263 10.2840548,38.9199747 10.0840548,38.9199747 C9.88394521,38.9199747 9.70290411,38.9633263 9.54071233,39.0495916 C9.37852055,39.1360758 9.23934247,39.2590147 9.12306849,39.4181895 C9.00679452,39.5775832 8.91747945,39.7692716 8.85545205,39.9933642 C8.79320548,40.2176758 8.76219178,40.4646484 8.76219178,40.73472 L8.76219178,40.73472 Z M13.4389041,43.5700884 L13.4389041,37.8588463 L13.795726,37.8588463 L16.4070137,41.0587621 L16.4070137,37.8992421 L17.5585753,37.8992421 L17.5585753,43.6104842 L17.2179726,43.6104842 L14.5904658,40.4430821 L14.5904658,43.5700884 L13.4389041,43.5700884 L13.4389041,43.5700884 Z M19.5493699,41.8526653 C19.5547397,41.9822821 19.5830137,42.0930695 19.6345205,42.1848084 C19.6859178,42.2767663 19.7521096,42.3537263 19.8333151,42.4156884 C19.9143014,42.4778695 20.0047123,42.5224253 20.1048767,42.5493558 C20.2048219,42.5763958 20.3088219,42.5897516 20.4170959,42.5897516 C20.5143014,42.5897516 20.6130411,42.58176 20.7130959,42.5655579 C20.8130411,42.5493558 20.9022466,42.5168421 20.9807123,42.4683453 C21.0589589,42.4197389 21.1226301,42.3496758 21.1712877,42.2577179 C21.2199452,42.1659789 21.244274,42.0470905 21.244274,41.9012716 C21.244274,41.7391411 21.2130411,41.6123705 21.1510137,41.5204126 C21.0888767,41.4286737 21.010411,41.3583916 20.915726,41.3098947 C20.8211507,41.2612884 20.7171507,41.2287747 20.6036164,41.2125726 C20.4900822,41.1963705 20.3818082,41.1830147 20.2792329,41.1721768 C19.689863,41.1183158 19.2493151,40.9426105 18.9573699,40.6454989 C18.6654247,40.3484968 18.5194521,39.9840589 18.5194521,39.5518568 C18.5194521,39.2873684 18.5640548,39.0470737 18.6532603,38.8308632 C18.7424658,38.6148716 18.8681644,38.4327074 19.0303562,38.2841516 C19.1925479,38.1355958 19.3871781,38.0208674 19.6142466,37.9397474 C19.8413151,37.8588463 20.0927123,37.8182316 20.3684384,37.8182316 C20.5955068,37.8182316 20.8198356,37.8481179 21.0415342,37.9074526 C21.2631233,37.9667874 21.4618082,38.0626863 21.6374795,38.1949305 C21.8131507,38.3272842 21.953863,38.50288 22.0592877,38.7216084 C22.1647123,38.9403368 22.2173151,39.2089853 22.2173151,39.5276632 L21.1469589,39.5276632 C21.1306301,39.2954695 21.045589,39.1265516 20.8915068,39.0213474 C20.7374247,38.9159242 20.5656986,38.8633768 20.3765479,38.8633768 C20.2846027,38.8633768 20.1940822,38.8768421 20.1048767,38.9037726 C20.0156712,38.9309221 19.9372055,38.9726316 19.8696986,39.0294484 C19.8019726,39.0861558 19.7480548,39.1563284 19.7075068,39.2399663 C19.6669589,39.3238232 19.6466849,39.4197221 19.6466849,39.5276632 C19.6466849,39.6519158 19.6669589,39.7544926 19.7075068,39.8355032 C19.7480548,39.9164042 19.8048219,39.9827453 19.8778082,40.0339789 C19.9507945,40.0853221 20.0372603,40.1244042 20.1373151,40.1514442 C20.2372603,40.1785937 20.3494795,40.1999411 20.473863,40.2161432 C20.7604384,40.2486568 21.0211507,40.3040505 21.2564384,40.3823242 C21.4915068,40.4605979 21.6916164,40.5685389 21.8564384,40.7062568 C22.0213699,40.8440842 22.1496986,41.0115789 22.2417534,41.2086316 C22.333589,41.4059032 22.3796164,41.6366737 22.3796164,41.9012716 C22.3796164,42.2360421 22.3240548,42.5156379 22.2133699,42.7396211 C22.1025753,42.9639326 21.9551781,43.1435789 21.7713973,43.2784505 C21.5875068,43.4134316 21.3792877,43.5092211 21.1469589,43.5660379 C20.914411,43.6227453 20.6737534,43.6510989 20.4252055,43.6510989 C20.1764384,43.6510989 19.9345753,43.6158484 19.6993973,43.5456758 C19.4642192,43.4756126 19.2533699,43.3663579 19.0668493,43.2175832 C18.8803288,43.0691368 18.7316164,42.8813895 18.6208219,42.6546695 C18.5099178,42.4277305 18.4545753,42.1603958 18.4545753,41.8526653 L19.5493699,41.8526653 L19.5493699,41.8526653 Z M25.1433425,43.6429979 C24.8513973,43.6429979 24.5849863,43.5954863 24.3445479,43.5012295 C24.1037808,43.4067537 23.898411,43.2744 23.7282192,43.1041684 C23.5578082,42.9340463 23.4267397,42.7275789 23.3349041,42.4845474 C23.2428493,42.2414063 23.1969315,41.9741811 23.1969315,41.6825432 L23.1969315,37.8992421 L24.3486027,37.8992421 L24.3486027,41.6662316 C24.3486027,41.9416674 24.421589,42.1631326 24.5674521,42.3306274 C24.7134247,42.4980126 24.9080548,42.58176 25.1513425,42.58176 C25.3892603,42.58176 25.579726,42.4980126 25.7231781,42.3306274 C25.8661918,42.1631326 25.9380822,41.9416674 25.9380822,41.6662316 L25.9380822,37.8992421 L27.0733151,37.8992421 L27.0733151,41.6825432 C27.0733151,41.9741811 27.0272877,42.2414063 26.9354521,42.4845474 C26.8433973,42.7275789 26.7124384,42.9340463 26.542137,43.1041684 C26.3719452,43.2744 26.1690959,43.4067537 25.9340274,43.5012295 C25.6987397,43.5954863 25.4352877,43.6429979 25.1433425,43.6429979 L25.1433425,43.6429979 Z M32.8724384,43.5700884 L31.7208767,43.5700884 L31.7208767,40.6536 L30.6017534,42.2819116 L30.4637808,42.2819116 L29.3447671,40.6536 L29.3447671,43.5700884 L28.1932055,43.5700884 L28.1932055,37.8344337 L28.6067945,37.8344337 L30.5449863,40.5806905 L32.4669589,37.8344337 L32.8724384,37.8344337 L32.8724384,43.5700884 L32.8724384,43.5700884 Z M35.1656986,40.1109389 L36.8687123,40.1109389 L36.8687123,41.1721768 L35.1656986,41.1721768 L35.1656986,42.4683453 L37.0552329,42.4683453 L37.0552329,43.5700884 L34.014137,43.5700884 L34.014137,37.8992421 L36.9984658,37.8992421 L36.9984658,38.9605895 L35.1656986,38.9605895 L35.1656986,40.1109389 L35.1656986,40.1109389 Z M4.23715068,50.1726653 C4.24252055,50.3022821 4.27090411,50.4130695 4.32230137,50.5048084 C4.37358904,50.5967663 4.43989041,50.6737263 4.5209863,50.7356884 C4.60208219,50.7978695 4.69249315,50.8424253 4.79265753,50.8693558 C4.89271233,50.8963958 4.99671233,50.9097516 5.10487671,50.9097516 C5.20219178,50.9097516 5.30071233,50.90176 5.40087671,50.8855579 C5.50082192,50.8693558 5.5900274,50.8368421 5.66849315,50.7883453 C5.74684932,50.7397389 5.81041096,50.6696758 5.85906849,50.5777179 C5.90772603,50.4859789 5.93205479,50.3670905 5.93205479,50.2212716 C5.93205479,50.0591411 5.90093151,49.9323705 5.83879452,49.8404126 C5.77654795,49.7486737 5.69808219,49.6783916 5.60361644,49.6298947 C5.5090411,49.5812884 5.40493151,49.5487747 5.29139726,49.5325726 C5.17786301,49.5163705 5.06969863,49.5030147 4.9670137,49.4921768 C4.37764384,49.4383158 3.93709589,49.2626105 3.64515068,48.9654989 C3.35320548,48.6684968 3.20723288,48.3040589 3.20723288,47.8718568 C3.20723288,47.6073684 3.25183562,47.3670737 3.3410411,47.1508632 C3.43024658,46.9348716 3.55594521,46.7527074 3.71813699,46.6041516 C3.88032877,46.4555958 4.0749589,46.3408674 4.3020274,46.2597474 C4.52909589,46.1788463 4.78049315,46.1382316 5.05621918,46.1382316 C5.28328767,46.1382316 5.50761644,46.1680084 5.72931507,46.2273432 C5.95090411,46.2868968 6.14958904,46.3827958 6.32536986,46.5149305 C6.50093151,46.6472842 6.64164384,46.82288 6.74706849,47.0416084 C6.85249315,47.2603368 6.90520548,47.5289853 6.90520548,47.8476632 L5.83473973,47.8476632 C5.81852055,47.6154695 5.73336986,47.4465516 5.57928767,47.3413474 C5.42520548,47.2359242 5.25347945,47.1833768 5.06432877,47.1833768 C4.97227397,47.1833768 4.88186301,47.1968421 4.79265753,47.2237726 C4.70345205,47.2509221 4.6249863,47.2926316 4.55747945,47.3494484 C4.48986301,47.4061558 4.43583562,47.4763284 4.39528767,47.5599663 C4.35473973,47.6438232 4.33446575,47.7397221 4.33446575,47.8476632 C4.33446575,47.9719158 4.35473973,48.0744926 4.39528767,48.1555032 C4.43583562,48.2364042 4.49260274,48.3027453 4.56558904,48.3539789 C4.63857534,48.4053221 4.72493151,48.4444042 4.82509589,48.4714442 C4.9250411,48.4985937 5.03726027,48.5199411 5.16164384,48.5361432 C5.44810959,48.5686568 5.7090411,48.6240505 5.94421918,48.7023242 C6.17939726,48.7805979 6.37939726,48.8885389 6.54432877,49.0262568 C6.70926027,49.1640842 6.83758904,49.3315789 6.92953425,49.5286316 C7.02136986,49.7259032 7.06739726,49.9566737 7.06739726,50.2212716 C7.06739726,50.5560421 7.01183562,50.8356379 6.90115068,51.0596211 C6.79024658,51.2839326 6.64284932,51.4635789 6.45928767,51.5984505 C6.27539726,51.7334316 6.06706849,51.8292211 5.83473973,51.8860379 C5.60219178,51.9427453 5.36164384,51.9710989 5.1129863,51.9710989 C4.86432877,51.9710989 4.62235616,51.9358484 4.38717808,51.8656758 C4.152,51.7956126 3.94115068,51.6863579 3.75463014,51.5375832 C3.56810959,51.3891368 3.41928767,51.2013895 3.30860274,50.9746695 C3.19780822,50.7477305 3.14235616,50.4803958 3.14235616,50.1726653 L4.23715068,50.1726653 L4.23715068,50.1726653 Z M9.10356164,48.4309389 L10.8065753,48.4309389 L10.8065753,49.4921768 L9.10356164,49.4921768 L9.10356164,50.7883453 L10.9932055,50.7883453 L10.9932055,51.8900884 L7.952,51.8900884 L7.952,46.2192421 L10.9364384,46.2192421 L10.9364384,47.2805895 L9.10356164,47.2805895 L9.10356164,48.4309389 L9.10356164,48.4309389 Z M11.9751233,51.8900884 L11.9751233,46.1788463 L12.3319452,46.1788463 L14.9432329,49.3787621 L14.9432329,46.2192421 L16.0947945,46.2192421 L16.0947945,51.9304842 L15.7543014,51.9304842 L13.1266849,48.7630821 L13.1266849,51.8900884 L11.9751233,51.8900884 L11.9751233,51.8900884 Z M18.085589,50.1726653 C18.0909589,50.3022821 18.1193425,50.4130695 18.1708493,50.5048084 C18.2220274,50.5967663 18.2883288,50.6737263 18.3694247,50.7356884 C18.4505205,50.7978695 18.5410411,50.8424253 18.6412055,50.8693558 C18.7411507,50.8963958 18.8451507,50.9097516 18.9533151,50.9097516 C19.0506301,50.9097516 19.1491507,50.90176 19.2493151,50.8855579 C19.3493699,50.8693558 19.4384658,50.8368421 19.5169315,50.7883453 C19.5952877,50.7397389 19.6588493,50.6696758 19.7075068,50.5777179 C19.7561644,50.4859789 19.7804932,50.3670905 19.7804932,50.2212716 C19.7804932,50.0591411 19.7493699,49.9323705 19.6873425,49.8404126 C19.6249863,49.7486737 19.5465205,49.6783916 19.4520548,49.6298947 C19.3574795,49.5812884 19.2533699,49.5487747 19.1398356,49.5325726 C19.0263014,49.5163705 18.918137,49.5030147 18.8154521,49.4921768 C18.2261918,49.4383158 17.7855342,49.2626105 17.493589,48.9654989 C17.2016438,48.6684968 17.0556712,48.3040589 17.0556712,47.8718568 C17.0556712,47.6073684 17.100274,47.3670737 17.189589,47.1508632 C17.2786849,46.9348716 17.4043836,46.7527074 17.5665753,46.6041516 C17.7287671,46.4555958 17.9233973,46.3408674 18.1504658,46.2597474 C18.3775342,46.1788463 18.6289315,46.1382316 18.9046575,46.1382316 C19.131726,46.1382316 19.3560548,46.1680084 19.577863,46.2273432 C19.7993425,46.2868968 19.9980274,46.3827958 20.1738082,46.5149305 C20.3493699,46.6472842 20.4901918,46.82288 20.5955068,47.0416084 C20.7010411,47.2603368 20.7536438,47.5289853 20.7536438,47.8476632 L19.6831781,47.8476632 C19.6669589,47.6154695 19.5819178,47.4465516 19.427726,47.3413474 C19.2736438,47.2359242 19.1020274,47.1833768 18.9127671,47.1833768 C18.8207123,47.1833768 18.7303014,47.1968421 18.6412055,47.2237726 C18.5518904,47.2509221 18.4734247,47.2926316 18.4059178,47.3494484 C18.3383014,47.4061558 18.284274,47.4763284 18.2438356,47.5599663 C18.2031781,47.6438232 18.1829041,47.7397221 18.1829041,47.8476632 C18.1829041,47.9719158 18.2031781,48.0744926 18.2438356,48.1555032 C18.284274,48.2364042 18.3410411,48.3027453 18.4140274,48.3539789 C18.4870137,48.4053221 18.5733699,48.4444042 18.6735342,48.4714442 C18.773589,48.4985937 18.8856986,48.5199411 19.0100822,48.5361432 C19.2965479,48.5686568 19.5574795,48.6240505 19.7926575,48.7023242 C20.0278356,48.7805979 20.227726,48.8885389 20.3927671,49.0262568 C20.557589,49.1640842 20.6860274,49.3315789 20.7780822,49.5286316 C20.8699178,49.7259032 20.9158356,49.9566737 20.9158356,50.2212716 C20.9158356,50.5560421 20.860274,50.8356379 20.749589,51.0596211 C20.6386849,51.2839326 20.4913973,51.4635789 20.3076164,51.5984505 C20.123726,51.7334316 19.9155068,51.8292211 19.6831781,51.8860379 C19.4506301,51.9427453 19.2100822,51.9710989 18.9614247,51.9710989 C18.7127671,51.9710989 18.4707945,51.9358484 18.2356164,51.8656758 C18.0004384,51.7956126 17.789589,51.6863579 17.6030685,51.5375832 C17.4165479,51.3891368 17.267726,51.2013895 17.1571507,50.9746695 C17.0462466,50.7477305 16.9907945,50.4803958 16.9907945,50.1726653 L18.085589,50.1726653 L18.085589,50.1726653 Z M21.4785753,51.8900884 L21.4785753,50.9259537 L22.1273425,50.9259537 L22.1273425,47.1589642 L21.5353425,47.1589642 L21.5353425,46.2192421 L23.8709041,46.2192421 L23.8709041,47.1589642 L23.2789041,47.1589642 L23.2789041,50.9259537 L23.9196712,50.9259537 L23.9196712,51.8900884 L21.4785753,51.8900884 L21.4785753,51.8900884 Z M28.4235616,47.9043705 C28.4235616,48.1096337 28.3775342,48.308 28.2856986,48.4996884 C28.1937534,48.6914863 28.0693699,48.8414653 27.9126575,48.9494063 C28.1504658,49.0574568 28.3288767,49.2221053 28.4478904,49.4434611 C28.5666849,49.6650358 28.6263014,49.9215326 28.6263014,50.2131705 C28.6263014,50.46704 28.5857534,50.6966063 28.5046575,50.90176 C28.4235616,51.1071326 28.3086027,51.2824 28.16,51.4282189 C28.0112877,51.5740379 27.8315616,51.6874526 27.6207123,51.7685726 C27.409863,51.8494737 27.1773151,51.8900884 26.9232877,51.8900884 L24.8147945,51.8900884 L24.8147945,46.2192421 L26.7448767,46.2192421 C26.9934247,46.2192421 27.2219178,46.2597474 27.430137,46.3408674 C27.638137,46.4217684 27.8153425,46.5352926 27.9612055,46.6811116 C28.1072877,46.8269305 28.2208219,47.0037305 28.3019178,47.2117305 C28.3830137,47.4196211 28.4235616,47.6505011 28.4235616,47.9043705 L28.4235616,47.9043705 Z M26.7367671,48.5524547 C26.8989589,48.5524547 27.0327671,48.4944337 27.1381918,48.3781726 C27.2436164,48.2621305 27.2963288,48.1096337 27.2963288,47.9205726 C27.2963288,47.7207832 27.2462466,47.5599663 27.1463014,47.4384505 C27.046137,47.3170442 26.9096986,47.2562863 26.7367671,47.2562863 L25.9662466,47.2562863 L25.9662466,48.5524547 L26.7367671,48.5524547 L26.7367671,48.5524547 Z M26.9395068,50.8288505 C27.1070685,50.8288505 27.2407671,50.7720337 27.3408219,50.6587284 C27.4409863,50.5452042 27.4908493,50.3941305 27.4908493,50.20496 C27.4908493,50.00528 27.4368219,49.8444632 27.3287671,49.7230568 C27.2206027,49.6015411 27.0801096,49.5406737 26.9069589,49.5406737 L25.9662466,49.5406737 L25.9662466,50.8288505 L26.9395068,50.8288505 L26.9395068,50.8288505 Z M32.5504658,51.8900884 L29.525589,51.8900884 L29.525589,46.2192421 L30.6771507,46.2192421 L30.6771507,50.8045474 L32.5504658,50.8045474 L32.5504658,51.8900884 L32.5504658,51.8900884 Z M34.3109041,48.5361432 C34.3649315,48.3471916 34.4270685,48.15824 34.4974247,47.9691789 C34.5676712,47.7801179 34.6487671,47.5858021 34.7408219,47.3859032 L35.2841644,46.2192421 L36.5004932,46.2192421 L36.5004932,46.3975747 L34.8704658,49.6216842 L34.8704658,51.8900884 L33.7190137,51.8900884 L33.7190137,49.6216842 L32.0807671,46.3975747 L32.0807671,46.2192421 L33.3134247,46.2192421 L33.8649863,47.4264084 C33.9513425,47.6154695 34.0283836,47.80048 34.096,47.9813305 C34.1635068,48.1621811 34.2270685,48.3471916 34.2865753,48.5361432 L34.3109041,48.5361432 L34.3109041,48.5361432 Z" id="Fill-4" fill="#1A1918" sketch:type="MSShapeGroup"></path>
            </g>
        </g>
    </g>
</svg>