<?xml version="1.0" encoding="UTF-8" standalone="no"?>
<svg width="14px" height="25px" viewBox="0 0 14 25" version="1.1" xmlns="http://www.w3.org/2000/svg" xmlns:xlink="http://www.w3.org/1999/xlink" xmlns:sketch="http://www.bohemiancoding.com/sketch/ns">
    <!-- Generator: Sketch 3.3 (11970) - http://www.bohemiancoding.com/sketch -->
    <title>facebook</title>
    <desc>Created with Sketch.</desc>
    <defs></defs>
    <g id="Page-1" stroke="none" stroke-width="1" fill="none" fill-rule="evenodd" sketch:type="MSPage">
        <g id="facebook" sketch:type="MSLayerGroup" stroke="#FFFFFF" stroke-linecap="round">
            <path d="M4.5,9.1 L1.6,9.1 C1.1,9.1 0.8,9.5 0.8,9.9 L0.8,12.4 C0.8,12.8 1.2,13.2 1.6,13.2 L4.5,13.2 L4.5,23 C4.5,23.4 4.9,23.8 5.3,23.8 L8.1,23.8 C8.6,23.8 8.9,23.4 8.9,23 L8.9,13.2 L11.9,13.2 C12.3,13.2 12.7,12.9 12.7,12.5 L13,10 C13.1,9.5 12.7,9.1 12.2,9.1 L8.9,9.1 L8.9,6.5 C8.9,5.3 9.2,4.5 11,4.5 L12.4,4.5 C12.9,4.5 13.2,4.1 13.2,3.7 L13.2,1.6 C13.2,1.2 12.9,0.8 12.4,0.8 C11.8,0.8 10.9,0.7 9.8,0.7 C6.5,0.7 4.3,2.6 4.3,6.1 L4.3,6.1" id="path-2" sketch:type="MSShapeGroup"></path>
        </g>
    </g>
</svg>