<svg xmlns="http://www.w3.org/2000/svg" xmlns:xlink="http://www.w3.org/1999/xlink" preserveAspectRatio="xMidYMid" width="74" height="27" viewBox="0 0 74 27">
  <defs>
    <style>

      .cls-2 {
        fill: #ffffff;
      }
    </style>
  </defs>
  <path d="M31.187,6.584 C31.187,6.584 32.446,6.584 32.446,6.584 C32.446,6.584 32.446,13.249 32.446,13.249 C32.446,13.249 31.098,13.249 31.098,13.249 C31.098,13.249 28.464,8.497 28.464,8.497 C28.464,8.497 28.446,8.497 28.446,8.497 C28.446,8.497 28.446,13.249 28.446,13.249 C28.446,13.249 27.187,13.249 27.187,13.249 C27.187,13.249 27.187,6.584 27.187,6.584 C27.187,6.584 28.608,6.584 28.608,6.584 C28.608,6.584 31.170,11.226 31.170,11.226 C31.170,11.226 31.187,11.226 31.187,11.226 C31.187,11.226 31.187,6.584 31.187,6.584 C31.187,6.584 31.187,6.584 31.187,6.584 ZM38.037,7.763 C38.037,7.763 34.612,7.763 34.612,7.763 C34.612,7.763 34.612,9.165 34.612,9.165 C34.612,9.165 37.758,9.165 37.758,9.165 C37.758,9.165 37.758,10.344 37.758,10.344 C37.758,10.344 34.612,10.344 34.612,10.344 C34.612,10.344 34.612,12.071 34.612,12.071 C34.612,12.071 38.190,12.071 38.190,12.071 C38.190,12.071 38.190,13.249 38.190,13.249 C38.190,13.249 33.290,13.249 33.290,13.249 C33.290,13.249 33.290,6.584 33.290,6.584 C33.290,6.584 38.037,6.584 38.037,6.584 C38.037,6.584 38.037,7.763 38.037,7.763 C38.037,7.763 38.037,7.763 38.037,7.763 ZM38.298,6.584 C38.298,6.584 39.736,6.584 39.736,6.584 C40.563,10.233 40.644,10.697 40.761,11.459 C40.761,11.459 40.779,11.459 40.779,11.459 C40.895,10.762 40.995,10.084 41.678,6.584 C41.678,6.584 43.107,6.584 43.107,6.584 C43.862,10.242 43.925,10.595 44.069,11.459 C44.069,11.459 44.087,11.459 44.087,11.459 C44.195,10.827 44.303,10.251 45.139,6.584 C45.139,6.584 46.505,6.584 46.505,6.584 C46.505,6.584 44.689,13.249 44.689,13.249 C44.689,13.249 43.395,13.249 43.395,13.249 C42.729,9.982 42.613,9.332 42.397,8.051 C42.397,8.051 42.379,8.051 42.379,8.051 C42.181,9.332 42.073,9.815 41.381,13.249 C41.381,13.249 40.123,13.249 40.123,13.249 C40.123,13.249 38.298,6.584 38.298,6.584 C38.298,6.584 38.298,6.584 38.298,6.584 ZM28.599,20.846 C28.599,20.846 27.250,20.846 27.250,20.846 C27.250,20.846 27.250,14.180 27.250,14.180 C27.250,14.180 30.199,14.180 30.199,14.180 C31.448,14.180 32.203,15.006 32.203,16.315 C32.203,16.919 31.880,18.441 30.145,18.441 C30.145,18.441 28.599,18.441 28.599,18.441 C28.599,18.441 28.599,20.846 28.599,20.846 C28.599,20.846 28.599,20.846 28.599,20.846 ZM29.849,17.289 C30.855,17.289 30.855,16.547 30.855,16.250 C30.855,15.600 30.505,15.331 29.668,15.331 C29.668,15.331 28.599,15.331 28.599,15.331 C28.599,15.331 28.599,17.289 28.599,17.289 C28.599,17.289 29.849,17.289 29.849,17.289 C29.849,17.289 29.849,17.289 29.849,17.289 ZM32.797,14.180 C32.797,14.180 36.060,14.180 36.060,14.180 C37.777,14.180 38.091,15.489 38.091,16.065 C38.091,16.798 37.732,17.429 37.093,17.652 C37.624,17.893 37.912,18.098 37.912,19.341 C37.912,20.316 37.912,20.558 38.199,20.669 C38.199,20.669 38.199,20.846 38.199,20.846 C38.199,20.846 36.707,20.846 36.707,20.846 C36.617,20.530 36.563,20.186 36.563,19.500 C36.563,18.590 36.509,18.237 35.512,18.237 C35.512,18.237 34.118,18.237 34.118,18.237 C34.118,18.237 34.118,20.846 34.118,20.846 C34.118,20.846 32.797,20.846 32.797,20.846 C32.797,20.846 32.797,14.180 32.797,14.180 C32.797,14.180 32.797,14.180 32.797,14.180 ZM35.700,17.114 C36.401,17.114 36.743,16.863 36.743,16.204 C36.743,15.851 36.590,15.331 35.799,15.331 C35.799,15.331 34.118,15.331 34.118,15.331 C34.118,15.331 34.118,17.114 34.118,17.114 C34.118,17.114 35.700,17.114 35.700,17.114 C35.700,17.114 35.700,17.114 35.700,17.114 ZM41.651,14.003 C42.505,14.003 44.752,14.385 44.752,17.513 C44.752,20.641 42.505,21.022 41.651,21.022 C40.797,21.022 38.549,20.641 38.549,17.513 C38.549,14.385 40.797,14.003 41.651,14.003 C41.651,14.003 41.651,14.003 41.651,14.003 ZM41.651,19.843 C42.379,19.843 43.404,19.378 43.404,17.513 C43.404,15.646 42.379,15.182 41.651,15.182 C40.922,15.182 39.898,15.646 39.898,17.513 C39.898,19.378 40.922,19.843 41.651,19.843 C41.651,19.843 41.651,19.843 41.651,19.843 ZM45.382,14.180 C45.382,14.180 48.231,14.180 48.231,14.180 C50.406,14.180 50.856,16.092 50.856,17.355 C50.856,18.785 50.308,20.846 48.177,20.846 C48.177,20.846 45.382,20.846 45.382,20.846 C45.382,20.846 45.382,14.180 45.382,14.180 C45.382,14.180 45.382,14.180 45.382,14.180 ZM46.703,19.695 C46.703,19.695 48.015,19.695 48.015,19.695 C49.112,19.695 49.481,18.553 49.481,17.457 C49.481,15.489 48.573,15.331 47.997,15.331 C47.997,15.331 46.703,15.331 46.703,15.331 C46.703,15.331 46.703,19.695 46.703,19.695 C46.703,19.695 46.703,19.695 46.703,19.695 ZM56.591,18.515 C56.591,20.270 55.566,21.022 53.939,21.022 C53.346,21.022 52.465,20.873 51.890,20.214 C51.539,19.805 51.404,19.268 51.386,18.599 C51.386,18.599 51.386,14.180 51.386,14.180 C51.386,14.180 52.762,14.180 52.762,14.180 C52.762,14.180 52.762,18.506 52.762,18.506 C52.762,19.434 53.283,19.843 53.912,19.843 C54.838,19.843 55.216,19.378 55.216,18.571 C55.216,18.571 55.216,14.180 55.216,14.180 C55.216,14.180 56.591,14.180 56.591,14.180 C56.591,14.180 56.591,18.515 56.591,18.515 C56.591,18.515 56.591,18.515 56.591,18.515 ZM61.580,16.361 C61.472,15.963 61.266,15.210 60.150,15.210 C59.503,15.210 58.550,15.656 58.550,17.540 C58.550,18.738 59.009,19.815 60.150,19.815 C60.896,19.815 61.418,19.378 61.580,18.562 C61.580,18.562 62.928,18.562 62.928,18.562 C62.659,20.010 61.742,21.022 60.123,21.022 C58.407,21.022 57.175,19.824 57.175,17.522 C57.175,15.192 58.479,14.003 60.141,14.003 C62.074,14.003 62.857,15.378 62.928,16.361 C62.928,16.361 61.580,16.361 61.580,16.361 C61.580,16.361 61.580,16.361 61.580,16.361 ZM66.246,20.846 C66.246,20.846 64.897,20.846 64.897,20.846 C64.897,20.846 64.897,15.359 64.897,15.359 C64.897,15.359 62.946,15.359 62.946,15.359 C62.946,15.359 62.946,14.180 62.946,14.180 C62.946,14.180 68.196,14.180 68.196,14.180 C68.196,14.180 68.196,15.359 68.196,15.359 C68.196,15.359 66.246,15.359 66.246,15.359 C66.246,15.359 66.246,20.846 66.246,20.846 C66.246,20.846 66.246,20.846 66.246,20.846 ZM69.508,18.794 C69.517,19.166 69.697,19.871 70.875,19.871 C71.513,19.871 72.223,19.713 72.223,19.007 C72.223,18.487 71.738,18.349 71.054,18.181 C71.054,18.181 70.363,18.014 70.363,18.014 C69.319,17.763 68.313,17.522 68.313,16.055 C68.313,15.312 68.699,14.003 70.794,14.003 C72.771,14.003 73.302,15.341 73.310,16.157 C73.310,16.157 72.016,16.157 72.016,16.157 C71.981,15.860 71.872,15.155 70.695,15.155 C70.182,15.155 69.571,15.349 69.571,15.953 C69.571,16.473 69.985,16.584 70.255,16.649 C70.255,16.649 71.828,17.048 71.828,17.048 C72.708,17.271 73.518,17.643 73.518,18.840 C73.518,20.846 71.540,21.022 70.974,21.022 C68.618,21.022 68.214,19.620 68.214,18.794 C68.214,18.794 69.508,18.794 69.508,18.794 C69.508,18.794 69.508,18.794 69.508,18.794 ZM11.638,-0.000 C11.638,-0.000 -0.000,6.739 -0.000,6.739 C-0.000,6.739 -0.000,20.252 -0.000,20.252 C-0.000,20.252 11.635,27.000 11.635,27.000 C11.635,27.000 23.310,20.252 23.310,20.252 C23.310,20.252 23.310,6.740 23.310,6.740 C23.310,6.740 23.310,6.739 23.310,6.739 C23.310,6.739 11.638,-0.000 11.638,-0.000 ZM11.639,13.021 C11.639,13.021 11.639,13.022 11.639,13.022 C11.639,13.022 3.186,8.457 3.186,8.457 C5.242,6.083 8.262,4.503 11.640,4.503 C14.946,4.503 18.186,6.105 20.239,8.392 C20.239,8.392 11.639,13.021 11.639,13.021 Z" id="path-1" class="cls-2" fill-rule="evenodd"/>
</svg>
