<?xml version="1.0" encoding="UTF-8" standalone="no"?>
<svg width="26px" height="21px" viewBox="0 0 26 21" version="1.1" xmlns="http://www.w3.org/2000/svg" xmlns:xlink="http://www.w3.org/1999/xlink" xmlns:sketch="http://www.bohemiancoding.com/sketch/ns">
    <!-- Generator: Sketch 3.3.1 (12005) - http://www.bohemiancoding.com/sketch -->
    <title>sound_on</title>
    <desc>Created with Sketch.</desc>
    <defs></defs>
    <g id="Page-1" stroke="none" stroke-width="1" fill="none" fill-rule="evenodd" sketch:type="MSPage">
        <g id="sound_on" sketch:type="MSLayerGroup" stroke="#FFFFFF" stroke-width="1.5" stroke-linecap="round" stroke-linejoin="round">
            <path d="M7.688,15.749 L14.624,19.498 L14.624,0.755 L5.376,6.003 L1.522,6.003 C1.474,6.01 0.751,5.955 0.751,6.753 L0.751,14.25 C0.759,15.059 1.498,15.033 1.522,14.999 L5.376,14.999 L5.376,8.252" id="path-1" sketch:type="MSShapeGroup"></path>
            <path d="M18.197,9.69 L24.503,9.69" id="path-2" sketch:type="MSShapeGroup" transform="translate(21.350000, 10.128500) scale(1, -1) translate(-21.350000, -10.128500) "></path>
            <path d="M18.197,15.317 L21.7,15.317" id="path-3" sketch:type="MSShapeGroup" transform="translate(19.948500, 15.755500) scale(1, -1) translate(-19.948500, -15.755500) "></path>
            <path d="M18.197,4.062 L21.7,4.062" id="path-4" sketch:type="MSShapeGroup" transform="translate(19.948500, 4.500500) scale(1, -1) translate(-19.948500, -4.500500) "></path>
        </g>
    </g>
</svg>