<?xml version="1.0" encoding="UTF-8" standalone="no"?>
<svg width="36px" height="26px" viewBox="0 0 36 26" version="1.1" xmlns="http://www.w3.org/2000/svg" xmlns:xlink="http://www.w3.org/1999/xlink" xmlns:sketch="http://www.bohemiancoding.com/sketch/ns">
    <!-- Generator: Sketch 3.3 (11970) - http://www.bohemiancoding.com/sketch -->
    <title>youtube.svg</title>
    <desc>Created with Sketch.</desc>
    <defs></defs>
    <g id="Page-1" stroke="none" stroke-width="1" fill="none" fill-rule="evenodd" sketch:type="MSPage">
        <g id="youtube.svg" sketch:type="MSLayerGroup" transform="translate(0.000000, 1.000000)" stroke="#FFFFFF" stroke-width="1.5" stroke-linecap="round">
            <path d="M14.3,10.2 L14.3,16.5 L23.4,11.9 L14.3,7.2" id="path-1" sketch:type="MSShapeGroup"></path>
            <path d="M1.3,5.6 C1.3,5.6 1.6,3.3 2.6,2.3 C3.9,1 5.3,1 6,0.9 C10.7,0.6 17.7,0.6 17.7,0.6 L17.7,0.6 C17.7,0.6 24.7,0.6 29.4,0.9 C30.1,1 31.5,1 32.8,2.3 C33.8,3.3 34.1,5.6 34.1,5.6 C34.1,5.6 34.4,8.3 34.4,11 L34.4,13.5 C34.4,16.2 34.1,18.9 34.1,18.9 C34.1,18.9 33.8,21.2 32.8,22.2 C31.5,23.5 29.8,23.5 29.1,23.6 C26.4,23.9 17.7,23.9 17.7,23.9 L17.7,23.9 C17.7,23.9 10.6,23.9 5.9,23.6 C5.2,23.5 3.8,23.5 2.5,22.2 C1.5,21.2 1.2,18.9 1.2,18.9 C1.2,18.9 0.9,16.2 0.9,13.5 L0.9,11.4 L0.9,9.6" id="path-2" sketch:type="MSShapeGroup"></path>
        </g>
    </g>
</svg>